<svg xmlns="http://www.w3.org/2000/svg" width="120" height="120" viewBox="0 0 120 120">
    <path fill="#FFF" fill-rule="nonzero" d="M110.914 29.097A33.092 33.092 0 0 0 99.1 11.935C87.949 3.1 77.525-.56 65.33.069a131.22 131.22 0 0 0-19.117 2.758c-8.916 1.813-15.391 4.979-19.8 9.679a37.92 37.92 0 0 0-7.928 13.051 53.059 53.059 0 0 0-1.788 6.5l-.166.721a25.426 25.426 0 0 1-1.675 4.505c-.41.926-.82 1.853-1.171 2.796a6.863 6.863 0 0 0-.533 3.36 7.622 7.622 0 0 0 2.883 4.446c.97.897 1.606 1.527 1.612 2.1a3.44 3.44 0 0 1-.346.852 77.381 77.381 0 0 1-8.65 14.212c-1.418 1.75-2.907 3.79-2.605 5.868A6.175 6.175 0 0 0 8.91 74.64c.653.458 1.342.862 2.061 1.207.853.44 2.281 1.175 2.38 1.7.13.675.054 1.373-.217 2.002-.293.625-.598 1.165-.86 1.634-.726 1.296-1.942 3.466-.109 5.018.427.381 1.157.96 1.824 1.476a5.075 5.075 0 0 0-.637 2.89 2.868 2.868 0 0 0 1.164 1.941c.442.317.915.593 1.384.864 1.162.668 1.615.98 1.772 1.603.103.813.03 1.639-.215 2.42a19.53 19.53 0 0 0-.295 1.57 11.761 11.761 0 0 0 .662 5.363c1.026 3.79 4.808 6.108 8.61 5.276a160.15 160.15 0 0 0 16.673-5.036c4.443 2.65 7.25 10.671 7.98 13.679a1.983 1.983 0 0 0 1.921 1.52h49.968c.627 0 1.216-.3 1.589-.809a2.012 2.012 0 0 0 .301-1.77 13.846 13.846 0 0 0-2.225-3.88 15.46 15.46 0 0 1-1.425-2.196 39.602 39.602 0 0 1-2.233-5.71 66.754 66.754 0 0 1-2.33-11.803 34.055 34.055 0 0 1 2.585-17.523 44.893 44.893 0 0 1 5.365-8.552c1.195-1.623 2.428-3.301 3.54-5.071a30.918 30.918 0 0 0 4.837-16.406 60.284 60.284 0 0 0-2.067-16.95zm-1.886 16.894a26.973 26.973 0 0 1-4.224 14.326c-1.033 1.644-2.222 3.262-3.372 4.827a48.745 48.745 0 0 0-5.815 9.335 38.077 38.077 0 0 0-2.886 19.6 70.642 70.642 0 0 0 2.477 12.503 43.744 43.744 0 0 0 2.45 6.27 18.71 18.71 0 0 0 1.794 2.813l.079.11H54.506a31.953 31.953 0 0 0-6.968-12.753l1.463-.517c1.48-.524 2.596-.92 3.158-1.098 5.044-1.6 10.034-4.78 10.605-6.054.57-1.274.57-2.023 0-2.629-.57-.605-2.296-.64-3.536.606-1.394 1.401-3.907 2.89-8.256 4.27-.583.185-1.743.594-3.277 1.138a695.684 695.684 0 0 1-5.07 1.776l-.012.004a163.081 163.081 0 0 1-16.978 5.178c-1.851.362-3.654-.822-4.076-2.678a7.802 7.802 0 0 1-.477-3.523c.054-.413.147-.827.237-1.24a8.919 8.919 0 0 0 .184-4.264 6.566 6.566 0 0 0-3.642-4.087c-.141-.08-.284-.163-.423-.246a7.33 7.33 0 0 1 .757-1.236 2.009 2.009 0 0 0-.38-2.836 95.335 95.335 0 0 1-2.417-1.863c.1-.187.215-.39.319-.574.303-.542.65-1.167.988-1.884a7.448 7.448 0 0 0 .53-4.465c-.46-2.447-2.776-3.639-4.467-4.51a11.428 11.428 0 0 1-1.643-.961c-.41-.288-.8-.606-1.163-.952.005-.3.314-1.03 1.835-2.905a80.647 80.647 0 0 0 9.03-14.828 5.807 5.807 0 0 0 .775-2.707 6.974 6.974 0 0 0-2.895-4.996c-.8-.739-1.554-1.437-1.639-2.049.007-.485.115-.963.317-1.403.324-.87.704-1.722 1.08-2.575a28.773 28.773 0 0 0 1.917-5.23l.168-.728c.42-2.039.97-4.048 1.644-6.015a33.977 33.977 0 0 1 7.09-11.69c3.828-4.082 9.622-6.866 17.71-8.51a127.814 127.814 0 0 1 18.54-2.686c11.187-.568 20.783 2.824 31.13 11.022a28.813 28.813 0 0 1 10.45 15.112 56.3 56.3 0 0 1 1.914 15.802z"/>
</svg>
